<mxfile host="app.diagrams.net" modified="2023-07-30T06:48:17.333Z" agent="Mozilla/5.0 (Windows NT 10.0; Win64; x64) AppleWebKit/537.36 (KHTML, like Gecko) Chrome/115.0.0.0 Safari/537.36" etag="wqfSPKduILlSOyTQHgLU" version="21.6.6" type="github">
  <diagram name="Page-1" id="ZGjoM7uuPQNQnbZuQpFt">
    <mxGraphModel dx="1728" dy="933" grid="1" gridSize="10" guides="1" tooltips="1" connect="1" arrows="1" fold="1" page="1" pageScale="1" pageWidth="850" pageHeight="1100" math="0" shadow="0">
      <root>
        <mxCell id="0" />
        <mxCell id="1" parent="0" />
        <mxCell id="2pmOUkxyaEIbo9G2wMPT-4" value="1" style="endArrow=open;html=1;endSize=12;startArrow=diamondThin;startSize=14;startFill=1;edgeStyle=orthogonalEdgeStyle;align=left;verticalAlign=bottom;rounded=0;" edge="1" parent="1">
          <mxGeometry x="-0.9332" y="-21" relative="1" as="geometry">
            <mxPoint x="438.5" y="515" as="sourcePoint" />
            <mxPoint x="438.5" y="365" as="targetPoint" />
            <Array as="points">
              <mxPoint x="439" y="440" />
              <mxPoint x="439" y="440" />
            </Array>
            <mxPoint as="offset" />
          </mxGeometry>
        </mxCell>
        <mxCell id="2pmOUkxyaEIbo9G2wMPT-5" value="Use" style="endArrow=open;endSize=12;dashed=1;html=1;rounded=0;" edge="1" parent="1">
          <mxGeometry width="160" relative="1" as="geometry">
            <mxPoint x="640" y="1058" as="sourcePoint" />
            <mxPoint x="800" y="1058" as="targetPoint" />
          </mxGeometry>
        </mxCell>
        <mxCell id="2pmOUkxyaEIbo9G2wMPT-6" value="" style="endArrow=open;endFill=1;endSize=12;html=1;rounded=0;" edge="1" parent="1">
          <mxGeometry width="160" relative="1" as="geometry">
            <mxPoint x="640" y="983" as="sourcePoint" />
            <mxPoint x="800" y="983" as="targetPoint" />
          </mxGeometry>
        </mxCell>
        <mxCell id="2pmOUkxyaEIbo9G2wMPT-7" value="&lt;font style=&quot;font-size: 14px;&quot;&gt;Editor&lt;/font&gt;" style="rounded=1;whiteSpace=wrap;html=1;" vertex="1" parent="1">
          <mxGeometry x="80" y="260" width="120" height="30" as="geometry" />
        </mxCell>
        <mxCell id="2pmOUkxyaEIbo9G2wMPT-9" value="content: string" style="rounded=0;whiteSpace=wrap;html=1;" vertex="1" parent="1">
          <mxGeometry x="80" y="290" width="120" height="30" as="geometry" />
        </mxCell>
        <mxCell id="2pmOUkxyaEIbo9G2wMPT-10" value="createState()&lt;br&gt;restore(state)" style="rounded=0;whiteSpace=wrap;html=1;" vertex="1" parent="1">
          <mxGeometry x="80" y="320" width="120" height="40" as="geometry" />
        </mxCell>
        <mxCell id="2pmOUkxyaEIbo9G2wMPT-11" value="Dependency" style="text;html=1;strokeColor=none;fillColor=none;align=center;verticalAlign=middle;whiteSpace=wrap;rounded=0;" vertex="1" parent="1">
          <mxGeometry x="630" y="1018" width="90" height="30" as="geometry" />
        </mxCell>
        <mxCell id="2pmOUkxyaEIbo9G2wMPT-12" value="Composition" style="text;html=1;strokeColor=none;fillColor=none;align=center;verticalAlign=middle;whiteSpace=wrap;rounded=0;" vertex="1" parent="1">
          <mxGeometry x="630" y="868" width="90" height="30" as="geometry" />
        </mxCell>
        <mxCell id="2pmOUkxyaEIbo9G2wMPT-13" value="Inheritance" style="text;html=1;strokeColor=none;fillColor=none;align=center;verticalAlign=middle;whiteSpace=wrap;rounded=0;" vertex="1" parent="1">
          <mxGeometry x="630" y="943" width="90" height="30" as="geometry" />
        </mxCell>
        <mxCell id="2pmOUkxyaEIbo9G2wMPT-14" value="Use" style="endArrow=open;endSize=12;dashed=1;html=1;rounded=0;" edge="1" parent="1">
          <mxGeometry width="160" relative="1" as="geometry">
            <mxPoint x="200" y="310" as="sourcePoint" />
            <mxPoint x="360" y="310" as="targetPoint" />
          </mxGeometry>
        </mxCell>
        <mxCell id="2pmOUkxyaEIbo9G2wMPT-15" value="&lt;font style=&quot;font-size: 14px;&quot;&gt;EditorState&lt;br&gt;&lt;/font&gt;" style="rounded=1;whiteSpace=wrap;html=1;" vertex="1" parent="1">
          <mxGeometry x="379" y="260" width="120" height="30" as="geometry" />
        </mxCell>
        <mxCell id="2pmOUkxyaEIbo9G2wMPT-16" value="content: string" style="rounded=0;whiteSpace=wrap;html=1;" vertex="1" parent="1">
          <mxGeometry x="379" y="290" width="120" height="30" as="geometry" />
        </mxCell>
        <mxCell id="2pmOUkxyaEIbo9G2wMPT-17" value="" style="rounded=0;whiteSpace=wrap;html=1;" vertex="1" parent="1">
          <mxGeometry x="379" y="320" width="120" height="40" as="geometry" />
        </mxCell>
        <mxCell id="2pmOUkxyaEIbo9G2wMPT-18" value="&lt;font style=&quot;font-size: 14px;&quot;&gt;History&lt;br&gt;&lt;/font&gt;" style="rounded=1;whiteSpace=wrap;html=1;" vertex="1" parent="1">
          <mxGeometry x="379" y="520" width="120" height="30" as="geometry" />
        </mxCell>
        <mxCell id="2pmOUkxyaEIbo9G2wMPT-19" value="state: List" style="rounded=0;whiteSpace=wrap;html=1;" vertex="1" parent="1">
          <mxGeometry x="379" y="550" width="120" height="30" as="geometry" />
        </mxCell>
        <mxCell id="2pmOUkxyaEIbo9G2wMPT-20" value="push(state)&lt;br&gt;pop()" style="rounded=0;whiteSpace=wrap;html=1;" vertex="1" parent="1">
          <mxGeometry x="379" y="580" width="120" height="40" as="geometry" />
        </mxCell>
        <mxCell id="2pmOUkxyaEIbo9G2wMPT-21" value="1" style="endArrow=open;html=1;endSize=12;startArrow=diamondThin;startSize=14;startFill=1;edgeStyle=orthogonalEdgeStyle;align=left;verticalAlign=bottom;rounded=0;" edge="1" parent="1">
          <mxGeometry x="-1" y="3" relative="1" as="geometry">
            <mxPoint x="650" y="918" as="sourcePoint" />
            <mxPoint x="810" y="918" as="targetPoint" />
          </mxGeometry>
        </mxCell>
      </root>
    </mxGraphModel>
  </diagram>
</mxfile>
